# xmcd
#
# Track frame offsets: 
#        150
#        11158
#        26218
#        37591
#        46726
#        63386
#        73311
#        84958
#        97878
#        105883
#        116037
#        129953
#        141960
#        152449
#        162591
#        175351
#        188097
#
# Disc length: 2638 seconds
#
# Revision: 0
# Processed by: cddbd v1.5.2PL0 Copyright (c) Steve Scherf et al.
# Submitted via: ExactAudioCopyFreeDBPlugin 1.0
#
DISCID=d60a4c11
DTITLE=Various Artist - Walk the Line (Soundtrack)
DYEAR=2005
DGENRE=Rockabilly
TTITLE0=Joaquin Phoenix - Get Rhythm
TTITLE1=Joaquin Phoenix - I Walk the Line
TTITLE2=Reese Witherspoon - Wildwood Flower
TTITLE3=Waylon Payne - Lewis Boogie
TTITLE4=Joaquin Phoenix - Ring of Fire
TTITLE5=Johnathan Rice - You're My Baby
TTITLE6=Joaquin Phoenix - Cry! Cry! Cry!
TTITLE7=Joaquin Phoenix - Folsom Prison Blues
TTITLE8=Tyler Hilton - That's All Right
TTITLE9=Reese Witherspoon - Juke Box Blues
TTITLE10=Joaquin Phoenix/Reese Witherspoon - It Ain't Me Babe
TTITLE11=Joaquin Phoenix - Home of the Blues
TTITLE12=Tyler Hilton - Milk Cow Blues
TTITLE13=Shooter Jennings - I'm a Long Way from Home
TTITLE14=Joaquin Phoenix - Cocaine Blues
TTITLE15=Joaquin Phoenix/Reese Witherspoon - Jackson
TTITLE16=Joaquin Phoenix/Reese Witherspoon - Time's a Wastin
EXTD=
EXTT0=
EXTT1=
EXTT2=
EXTT3=
EXTT4=
EXTT5=
EXTT6=
EXTT7=
EXTT8=
EXTT9=
EXTT10=
EXTT11=
EXTT12=
EXTT13=
EXTT14=
EXTT15=
EXTT16=
PLAYORDER=
